<svg width="30" height="30" fill="none" xmlns="http://www.w3.org/2000/svg"><path d="M7.154 15c0 .637-.516 1.154-1.154 1.154H3.692a1.154 1.154 0 1 1 0-2.308H6c.638 0 1.154.517 1.154 1.154Zm0-7.385c0-.637-.516-1.153-1.154-1.153H3.692a1.154 1.154 0 1 0 0 2.307H6c.638 0 1.154-.516 1.154-1.154Zm0 14.77c0-.638-.516-1.154-1.154-1.154H3.692a1.154 1.154 0 1 0 0 2.307H6c.638 0 1.154-.516 1.154-1.153ZM27.462 3.692v22.616A3.692 3.692 0 0 1 23.77 30H7.616a3.692 3.692 0 0 1-3.693-3.692v-1.846H6a2.08 2.08 0 0 0 2.077-2.077A2.08 2.08 0 0 0 6 20.308H3.923v-3.231H6A2.08 2.08 0 0 0 8.077 15 2.08 2.08 0 0 0 6 12.923H3.923v-3.23H6a2.08 2.08 0 0 0 2.077-2.078A2.08 2.08 0 0 0 6 5.538H3.923V3.692A3.693 3.693 0 0 1 7.615 0H23.77a3.692 3.692 0 0 1 3.693 3.692Zm-14.638 7.253a3.56 3.56 0 1 0 7.121 0 3.56 3.56 0 0 0-7.12 0Zm9.1 8.703a3.956 3.956 0 0 0-3.957-3.956h-3.164a3.956 3.956 0 0 0-3.957 3.956v1.583h11.077v-1.583Z" fill="#fff"/></svg>