<svg width="30" height="30" fill="none" xmlns="http://www.w3.org/2000/svg"><path d="M22.925 0H7.075a4.413 4.413 0 0 0-4.422 4.422v21.122c0 2.45 1.973 4.456 4.422 4.456h15.85a4.413 4.413 0 0 0 4.422-4.422V4.422A4.413 4.413 0 0 0 22.925 0ZM11.361 8.367h7.313c.578 0 1.02.443 1.02 1.02 0 .579-.442 1.021-1.02 1.021H11.36c-.579 0-1.02-.442-1.02-1.02 0-.578.441-1.02 1.02-1.02Zm9.898 13.266H8.707c-.578 0-1.02-.442-1.02-1.02 0-.579.476-1.021 1.02-1.021H21.26c.578 0 1.02.442 1.02 1.02 0 .579-.442 1.02-1.02 1.02Zm0-5.613H8.707c-.578 0-1.02-.442-1.02-1.02 0-.578.476-1.02 1.02-1.02H21.26c.578 0 1.02.442 1.02 1.02 0 .578-.442 1.02-1.02 1.02Z" fill="#fff"/></svg>