<svg width="30" height="30" fill="none" xmlns="http://www.w3.org/2000/svg"><path d="M4.765 14.823a3.176 3.176 0 1 1 6.352 0 3.176 3.176 0 0 1-6.352 0ZM22.059 18a3.176 3.176 0 1 0 0-6.352 3.176 3.176 0 0 0 0 6.352Zm1.412 1.059h-2.824a3.53 3.53 0 0 0-3.53 3.53v2.005a.706.706 0 0 1-.285.567l-1.689 1.144a.352.352 0 0 1-.405-.006l-1.57-1.138a.706.706 0 0 1-.286-.567v-2.006a3.53 3.53 0 0 0-3.53-3.53H6.53A3.53 3.53 0 0 0 3 22.589v4.6c0 .48.39.87.872.87h.02c.482 0 .873-.39.873-.87V30h6.353v-4.06l1.764 1.24 1.336.888c.474.315 1.09.315 1.564 0l1.336-.888 1.764-1.24V30h6.353v-2.813c0 .482.39.872.872.872h.021c.482 0 .872-.39.872-.872v-4.599a3.53 3.53 0 0 0-3.53-3.53ZM22.059 4.94c0 2.73-3.319 4.941-7.412 4.941-.438 0-.864-.03-1.281-.078-1.054 1.136-3.13 1.314-3.13 1.314.36-.664.595-1.303.674-1.915-2.196-.857-3.675-2.443-3.675-4.262 0-2.728 3.319-4.94 7.412-4.94s7.412 2.212 7.412 4.941Zm-9.353 0a1.059 1.059 0 1 0-2.118 0 1.059 1.059 0 0 0 2.118 0Zm3.176 0a1.059 1.059 0 1 0-2.117 0 1.059 1.059 0 0 0 2.117 0Zm3.177 0a1.059 1.059 0 1 0-2.118 0 1.059 1.059 0 0 0 2.118 0Z" fill="#fff"/></svg>