<svg width="30" height="30" fill="none" xmlns="http://www.w3.org/2000/svg"><path d="m29.19 13.049-.001-.002L16.95.809A2.743 2.743 0 0 0 14.998 0c-.737 0-1.431.287-1.953.81L.814 13.04l-.012.013a2.765 2.765 0 0 0 .005 3.9 2.745 2.745 0 0 0 1.918.81h.487v9.005A3.236 3.236 0 0 0 6.445 30h4.788a.879.879 0 0 0 .878-.879v-7.06c0-.814.662-1.475 1.475-1.475h2.824c.813 0 1.475.661 1.475 1.475v7.06c0 .486.393.879.879.879h4.788a3.236 3.236 0 0 0 3.232-3.232v-9.006h.452c.738 0 1.431-.287 1.953-.809a2.766 2.766 0 0 0 .002-3.904Z" fill="#fff"/></svg>