<svg width="30" height="30" fill="none" xmlns="http://www.w3.org/2000/svg"><g clip-path="url(#a)"><path d="M26.186 17.565c-.344-4.475-2.427-7.278-4.265-9.753C20.22 5.522 18.75 3.544 18.75.626a.626.626 0 0 0-.989-.508c-2.76 1.975-5.063 5.303-5.867 8.48-.559 2.21-.632 4.696-.643 6.338-2.549-.544-3.126-4.357-3.132-4.399a.622.622 0 0 0-.892-.474c-.133.065-3.28 1.664-3.464 8.048-.012.213-.013.426-.013.639C3.75 24.952 8.797 30 15 30h.033c6.187-.02 11.217-5.06 11.217-11.25 0-.312-.064-1.185-.064-1.185ZM15 28.749c-2.068 0-3.75-1.792-3.75-3.994 0-.075 0-.151.005-.244.025-.929.201-1.563.395-1.985.362.78 1.01 1.495 2.063 1.495.346 0 .625-.28.625-.625 0-.89.019-1.916.24-2.843.197-.821.669-1.695 1.266-2.396.265.91.783 1.646 1.288 2.364.723 1.028 1.471 2.09 1.602 3.902.008.108.016.216.016.332 0 2.202-1.682 3.994-3.75 3.994Z" fill="#fff"/></g><defs><clipPath id="a"><path fill="#fff" d="M0 0h30v30H0z"/></clipPath></defs></svg>