<svg width="30" height="30" fill="none" xmlns="http://www.w3.org/2000/svg"><g clip-path="url(#a)"><path d="m29.29 25.66-6.898-6.898a12.06 12.06 0 0 0 1.852-6.438c0-6.694-5.427-12.12-12.122-12.12S0 5.629 0 12.325c0 6.695 5.427 12.121 12.122 12.121 2.575 0 4.96-.805 6.924-2.173l6.815 6.816a2.418 2.418 0 0 0 1.714.708 2.425 2.425 0 0 0 1.714-4.138Zm-17.168-5.141a8.194 8.194 0 1 1 0-16.388 8.194 8.194 0 0 1 0 16.388Z" fill="#fff"/></g><defs><clipPath id="a"><path fill="#fff" d="M0 0h30v30H0z"/></clipPath></defs></svg>