<svg width="30" height="30" fill="none" xmlns="http://www.w3.org/2000/svg"><path d="m16.677 14.836 1.017-.832h-1.33a.88.88 0 0 1-.827-.579L15 11.947l-.538 1.479a.879.879 0 0 1-.826.578h-1.33l1.017.832c.29.237.397.63.27.98l-.645 1.774 1.586-.992a.88.88 0 0 1 .932 0l1.586.992-.645-1.773a.88.88 0 0 1 .27-.98Z" fill="#fff"/><path d="M15 6.036c-4.943 0-8.965 4.021-8.965 8.964 0 4.943 4.022 8.965 8.965 8.965s8.964-4.022 8.964-8.965S19.943 6.036 15 6.036Zm5.712 7.77-2.44 1.996 1.304 3.585a.88.88 0 0 1-1.292 1.046L15 18.38l-3.284 2.053a.879.879 0 0 1-1.292-1.046l1.304-3.585-2.44-1.997a.879.879 0 0 1 .556-1.559h3.177l1.153-3.171a.879.879 0 0 1 1.652 0l1.153 3.171h3.177a.879.879 0 0 1 .556 1.56Z" fill="#fff"/><path d="M28.998 11.995a10.877 10.877 0 0 1-2.004-4.766 5.094 5.094 0 0 0-4.221-4.222 10.876 10.876 0 0 1-4.766-2.004 5.004 5.004 0 0 0-6.011 0A10.875 10.875 0 0 1 7.23 3.007 5.094 5.094 0 0 0 3.01 7.23a10.875 10.875 0 0 1-2.004 4.766 5.004 5.004 0 0 0 0 6.01 10.876 10.876 0 0 1 2.004 4.766 5.094 5.094 0 0 0 4.221 4.222c1.731.277 3.38.97 4.766 2.004a5.004 5.004 0 0 0 6.011 0 10.875 10.875 0 0 1 4.766-2.004 5.094 5.094 0 0 0 4.221-4.222c.277-1.731.97-3.379 2.004-4.765 0-.044 1.003-1.14 1.003-3.006a4.994 4.994 0 0 0-1.003-3.005ZM15.001 25.721C9.09 25.722 4.28 20.912 4.28 15S9.09 4.278 15.002 4.278 25.724 9.088 25.724 15 20.914 25.722 15 25.722Z" fill="#fff"/></svg>