<svg width="30" height="30" fill="none" xmlns="http://www.w3.org/2000/svg"><g clip-path="url(#a)" fill="#fff"><path d="M27.74 22.367H13.81c-.63 0-1.142.51-1.142 1.142v4.621c0 .632.511 1.143 1.143 1.143H27.74c.631 0 1.142-.511 1.142-1.143v-4.62c0-.631-.51-1.142-1.142-1.142Zm-21.623-.414a1.141 1.141 0 0 0-1.615 0l-3.048 3.049a1.141 1.141 0 0 0 0 1.615l3.048 3.048a1.14 1.14 0 0 0 1.615 0l3.049-3.048a1.141 1.141 0 0 0 0-1.615l-3.049-3.049ZM27.74 11.558H13.81c-.63 0-1.142.51-1.142 1.142v4.621c0 .631.511 1.142 1.143 1.142H27.74c.631 0 1.142-.51 1.142-1.142V12.7c0-.631-.51-1.142-1.142-1.142Zm-21.623-.414a1.141 1.141 0 0 0-1.615 0l-3.048 3.049a1.141 1.141 0 0 0 0 1.615l3.048 3.048a1.14 1.14 0 0 0 1.615 0l3.049-3.048a1.141 1.141 0 0 0 0-1.615l-3.049-3.049ZM27.74.749H13.81c-.63 0-1.142.51-1.142 1.142v4.621c0 .632.511 1.142 1.143 1.142H27.74c.631 0 1.142-.51 1.142-1.142V1.891A1.14 1.14 0 0 0 27.74.749ZM6.118.335a1.14 1.14 0 0 0-1.615 0L1.455 3.383a1.141 1.141 0 0 0 0 1.615l3.048 3.049a1.141 1.141 0 0 0 1.615 0l3.049-3.049a1.141 1.141 0 0 0 0-1.615L6.118.335Z"/></g><defs><clipPath id="a"><path fill="#fff" d="M0 0h30v30H0z"/></clipPath></defs></svg>