<svg width="30" height="30" fill="none" xmlns="http://www.w3.org/2000/svg"><path d="M25.668 16.015h-2.32c.236.647.365 1.346.365 2.074v8.769c0 .304-.053.595-.149.866H27.4a2.601 2.601 0 0 0 2.598-2.598v-4.78a4.336 4.336 0 0 0-4.33-4.331ZM6.285 18.09c0-.729.13-1.428.366-2.075H4.33A4.336 4.336 0 0 0 0 20.345v4.78a2.601 2.601 0 0 0 2.598 2.6h3.836a2.586 2.586 0 0 1-.149-.867v-8.769Zm11.365-4.331h-5.303a4.336 4.336 0 0 0-4.33 4.33v8.769c0 .478.387.866.865.866h12.233a.866.866 0 0 0 .867-.866V18.09a4.336 4.336 0 0 0-4.331-4.331ZM15.001 2.276a5.214 5.214 0 0 0-5.208 5.208 5.212 5.212 0 0 0 5.208 5.208 5.212 5.212 0 0 0 5.208-5.208 5.214 5.214 0 0 0-5.208-5.208ZM5.852 7.13a3.9 3.9 0 0 0-3.895 3.895 3.9 3.9 0 0 0 3.895 3.895 3.87 3.87 0 0 0 1.535-.316 3.92 3.92 0 0 0 1.902-1.75 3.87 3.87 0 0 0 .458-1.829A3.9 3.9 0 0 0 5.852 7.13Zm18.293 0a3.9 3.9 0 0 0-3.895 3.895c0 .661.166 1.284.458 1.83a3.92 3.92 0 0 0 1.902 1.75 3.9 3.9 0 0 0 5.43-3.58 3.9 3.9 0 0 0-3.895-3.895Z" fill="#fff"/></svg>