<svg width="30" height="30" viewBox="0 0 30 30" fill="none" xmlns="http://www.w3.org/2000/svg">
<g clip-path="url(#clip0_5_217)">
<path d="M14.7861 14.4511C16.7714 14.4511 18.4906 13.739 19.8952 12.3342C21.2998 10.9295 22.0119 9.21085 22.0119 7.22531C22.0119 5.24046 21.2998 3.52156 19.895 2.11646C18.4901 0.712049 16.7712 0 14.7861 0C12.8006 0 11.0819 0.712049 9.67723 2.11669C8.27258 3.52133 7.5603 5.24023 7.5603 7.22531C7.5603 9.21085 8.27258 10.9298 9.67746 12.3344C11.0823 13.7388 12.8012 14.4511 14.7861 14.4511Z" fill="white"/>
<path d="M27.4294 23.0684C27.3889 22.4838 27.307 21.8462 27.1864 21.1728C27.0646 20.4944 26.9078 19.8531 26.7201 19.2669C26.5263 18.6611 26.2626 18.0628 25.9367 17.4894C25.5984 16.8943 25.201 16.3762 24.7552 15.9497C24.2889 15.5037 23.7181 15.145 23.058 14.8834C22.4002 14.6232 21.6712 14.4913 20.8914 14.4913C20.5852 14.4913 20.289 14.617 19.717 14.9894C19.365 15.2189 18.9532 15.4844 18.4937 15.7781C18.1007 16.0285 17.5683 16.2631 16.9107 16.4755C16.2691 16.6831 15.6178 16.7884 14.9748 16.7884C14.3319 16.7884 13.6807 16.6831 13.0385 16.4755C12.3816 16.2633 11.8492 16.0287 11.4567 15.7783C11.0014 15.4874 10.5894 15.2219 10.2322 14.9891C9.66087 14.6167 9.36447 14.4911 9.05823 14.4911C8.2782 14.4911 7.54944 14.6232 6.89186 14.8836C6.23222 15.1448 5.66116 15.5034 5.19447 15.95C4.74884 16.3766 4.35127 16.8946 4.01344 17.4894C3.68774 18.0628 3.42407 18.6608 3.22998 19.2671C3.04253 19.8533 2.88574 20.4944 2.76398 21.1728C2.64336 21.8453 2.56142 22.4832 2.5209 23.0691C2.48108 23.6431 2.46094 24.2389 2.46094 24.8406C2.46094 26.4066 2.95876 27.6744 3.94043 28.6094C4.90997 29.532 6.19286 30.0001 7.75291 30.0001H22.1981C23.7582 30.0001 25.0406 29.5322 26.0104 28.6094C26.9923 27.6751 27.4901 26.4071 27.4901 24.8404C27.4899 24.2359 27.4695 23.6397 27.4294 23.0684Z" fill="white"/>
</g>
<defs>
<clipPath id="clip0_5_217">
<rect width="30" height="30" fill="white"/>
</clipPath>
</defs>
</svg>
