<svg width="30" height="30" viewBox="0 0 30 30" fill="none" xmlns="http://www.w3.org/2000/svg">
<g clip-path="url(#clip0_5_245)">
<path d="M27.7398 22.3667H13.8107C13.1794 22.3667 12.6685 22.8777 12.6685 23.5089V28.1302C12.6685 28.7616 13.1794 29.2725 13.8107 29.2725H27.7398C28.3713 29.2725 28.8821 28.7616 28.8821 28.1302V23.5089C28.882 22.8777 28.3713 22.3667 27.7398 22.3667Z" fill="white"/>
<path d="M6.11729 21.9531C5.67085 21.5067 4.94866 21.5067 4.50228 21.9531L1.45369 25.0016C1.0073 25.448 1.0073 26.1701 1.45369 26.6167L4.50228 29.6651C4.9486 30.1117 5.67078 30.1117 6.11729 29.6651L9.1657 26.6167C9.61221 26.1702 9.61221 25.4481 9.1657 25.0016L6.11729 21.9531Z" fill="white"/>
<path d="M27.7398 11.5576H13.8107C13.1794 11.5576 12.6685 12.0686 12.6685 12.7V17.3212C12.6685 17.9525 13.1794 18.4634 13.8107 18.4634H27.7398C28.3713 18.4634 28.8821 17.9526 28.8821 17.3212V12.7C28.882 12.0686 28.3713 11.5576 27.7398 11.5576Z" fill="white"/>
<path d="M6.11729 11.1441C5.67085 10.6976 4.94866 10.6976 4.50228 11.1441L1.45369 14.1926C1.0073 14.639 1.0073 15.361 1.45369 15.8076L4.50228 18.8559C4.9486 19.3025 5.67078 19.3025 6.11729 18.8559L9.1657 15.8076C9.61221 15.361 9.61221 14.639 9.1657 14.1926L6.11729 11.1441Z" fill="white"/>
<path d="M27.7398 0.748657H13.8107C13.1794 0.748657 12.6685 1.25949 12.6685 1.89083V6.51219C12.6685 7.14353 13.1794 7.65443 13.8107 7.65443H27.7398C28.3713 7.65443 28.8821 7.14359 28.8821 6.51219V1.89077C28.882 1.25949 28.3713 0.748657 27.7398 0.748657Z" fill="white"/>
<path d="M6.11821 0.334974C5.67176 -0.111658 4.94958 -0.111658 4.50319 0.334974L1.45466 3.38326C1.00828 3.82995 1.00828 4.55201 1.45466 4.99846L4.50325 8.04693C4.94958 8.49338 5.67176 8.49338 6.11827 8.04693L9.16668 4.99846C9.61318 4.55201 9.61318 3.82995 9.16668 3.38326L6.11821 0.334974Z" fill="white"/>
</g>
<defs>
<clipPath id="clip0_5_245">
<rect width="30" height="30" fill="white"/>
</clipPath>
</defs>
</svg>
