<svg width="30" height="30" viewBox="0 0 30 30" fill="none" xmlns="http://www.w3.org/2000/svg">
<path d="M22.9252 0H7.07484C4.62587 0 2.65308 1.97279 2.65308 4.42177V25.5442C2.65308 27.9932 4.62587 30 7.07484 30H22.9252C25.3742 30 27.347 28.0272 27.347 25.5782V4.42177C27.347 1.97279 25.3742 0 22.9252 0ZM11.3606 8.36735H18.6735C19.2517 8.36735 19.6939 8.80952 19.6939 9.38775C19.6939 9.96599 19.2517 10.4082 18.6735 10.4082H11.3606C10.7823 10.4082 10.3402 9.96599 10.3402 9.38775C10.3402 8.80952 10.7823 8.36735 11.3606 8.36735ZM21.2585 21.6327H8.7075C8.12927 21.6327 7.68709 21.1905 7.68709 20.6122C7.68709 20.034 8.16328 19.5918 8.7075 19.5918H21.2585C21.8368 19.5918 22.2789 20.034 22.2789 20.6122C22.2789 21.1905 21.8368 21.6327 21.2585 21.6327ZM21.2585 16.0204H8.7075C8.12927 16.0204 7.68709 15.5782 7.68709 15C7.68709 14.4218 8.16328 13.9796 8.7075 13.9796H21.2585C21.8368 13.9796 22.2789 14.4218 22.2789 15C22.2789 15.5782 21.8368 16.0204 21.2585 16.0204Z" fill="white"/>
</svg>
