<svg width="30" height="30" viewBox="0 0 30 30" fill="none" xmlns="http://www.w3.org/2000/svg">
<path d="M16.6765 14.8363L17.6938 14.004H16.3634C15.9938 14.004 15.6638 13.7728 15.5375 13.4255L14.9999 11.947L14.4623 13.4255C14.336 13.7728 14.0059 14.004 13.6363 14.004H12.3059L13.3232 14.8363C13.6122 15.0728 13.7202 15.466 13.5926 15.8169L12.948 17.5897L14.5341 16.5984C14.819 16.4204 15.1807 16.4203 15.4657 16.5984L17.0517 17.5897L16.4071 15.8169C16.2795 15.466 16.3876 15.0728 16.6765 14.8363Z" fill="white"/>
<path d="M14.9999 6.03552C10.0569 6.03552 6.0354 10.057 6.0354 15C6.0354 19.943 10.0569 23.9645 14.9999 23.9645C19.9429 23.9645 23.9644 19.943 23.9644 15C23.9644 10.057 19.9429 6.03552 14.9999 6.03552ZM20.7124 13.8053L18.272 15.802L19.5756 19.387C19.7851 19.9629 19.3556 20.5662 18.7495 20.5662C18.5885 20.5662 18.427 20.5221 18.2839 20.4326L14.9998 18.3801L11.7158 20.4326C11.3977 20.6314 10.9885 20.6064 10.697 20.3704C10.4054 20.1344 10.2958 19.7395 10.424 19.387L11.7276 15.802L9.28722 13.8053C8.99971 13.57 8.89114 13.1794 9.01606 12.8296C9.14092 12.4798 9.47231 12.2462 9.84378 12.2462H13.0207L14.1739 9.07489C14.3002 8.72756 14.6303 8.49636 14.9998 8.49636C15.3694 8.49636 15.6995 8.72756 15.8258 9.07489L16.979 12.2462H20.1559C20.5273 12.2462 20.8587 12.4798 20.9836 12.8296C21.1085 13.1794 21 13.57 20.7124 13.8053Z" fill="white"/>
<path d="M28.9982 11.9945C27.9645 10.608 27.2714 8.96012 26.9942 7.22898C26.6516 5.08917 24.9719 3.35944 22.7726 3.0073C21.0414 2.73011 19.3935 2.03709 18.007 1.0033C16.2272 -0.323792 13.8037 -0.344709 11.9957 1.0033C10.6093 2.03709 8.96141 2.73011 7.23027 3.0073C5.09051 3.34989 3.36078 5.02958 3.00865 7.22893C2.73151 8.96007 2.03849 10.6079 1.00464 11.9945C-0.322449 13.7743 -0.343367 16.1978 1.00464 18.0057C2.03849 19.3923 2.73145 21.0401 3.00865 22.7712C3.35129 24.9111 5.03104 26.6408 7.23033 26.9929C8.96147 27.27 10.6094 27.9631 11.9959 28.9969C13.7757 30.324 16.1992 30.3449 18.0072 28.9969C19.3937 27.9631 21.0415 27.2701 22.7726 26.9929C24.9124 26.6503 26.6422 24.9706 26.9943 22.7712C27.2715 21.04 27.9645 19.3921 28.9983 18.0057C28.9983 17.9619 30.0009 16.8656 30.0009 15.0001C30.0009 13.9134 29.6542 12.8741 28.9982 11.9945ZM15.0015 25.7223C9.0892 25.7223 4.27926 20.9124 4.27926 15.0001C4.27926 9.08785 9.0892 4.27791 15.0015 4.27791C20.9138 4.27791 25.7237 9.08785 25.7237 15.0001C25.7237 20.9124 20.9138 25.7223 15.0015 25.7223Z" fill="white"/>
</svg>
