<svg width="30" height="30" viewBox="0 0 30 30" fill="none" xmlns="http://www.w3.org/2000/svg">
<path d="M26.7543 9.04652L17.9652 0.257461C17.8004 0.0925781 17.5768 0 17.3438 0H3.86719C3.3818 0 2.98828 0.393516 2.98828 0.878906V29.1211C2.98828 29.6065 3.3818 30 3.86719 30H26.1328C26.6182 30 27.0117 29.6065 27.0117 29.1211V9.66797C27.0117 9.43482 26.9191 9.21129 26.7543 9.04652ZM17.9297 15.8789H15.8789V17.9297C15.8789 18.4151 15.4854 18.8086 15 18.8086C14.5146 18.8086 14.1211 18.4151 14.1211 17.9297V15.8789H12.0703C11.5849 15.8789 11.1914 15.4854 11.1914 15C11.1914 14.5146 11.5849 14.1211 12.0703 14.1211H14.1211V12.0703C14.1211 11.5849 14.5146 11.1914 15 11.1914C15.4854 11.1914 15.8789 11.5849 15.8789 12.0703V14.1211H17.9297C18.4151 14.1211 18.8086 14.5146 18.8086 15C18.8086 15.4854 18.4151 15.8789 17.9297 15.8789Z" fill="white"/>
</svg>
