<svg width="30" height="30" viewBox="0 0 30 30" fill="none" xmlns="http://www.w3.org/2000/svg">
<path d="M25.6677 16.0149H23.3477C23.5841 16.6624 23.7133 17.3611 23.7133 18.0893V26.8579C23.7133 27.1616 23.6605 27.453 23.5643 27.7241H27.4C28.8327 27.7241 29.9984 26.5584 29.9984 25.1257V20.3455C29.9984 17.9576 28.0557 16.0149 25.6677 16.0149Z" fill="white"/>
<path d="M6.28507 18.0893C6.28507 17.361 6.41427 16.6624 6.65075 16.0149H4.33067C1.94274 16.0149 0 17.9576 0 20.3456V25.1257C0 26.5584 1.16561 27.7241 2.5984 27.7241H6.43407C6.33792 27.4529 6.28507 27.1616 6.28507 26.8579V18.0893Z" fill="white"/>
<path d="M17.6508 13.7588H12.3468C9.95885 13.7588 8.01611 15.7015 8.01611 18.0895V26.858C8.01611 27.3363 8.40389 27.7242 8.88225 27.7242H21.1154C21.5937 27.7242 21.9815 27.3364 21.9815 26.858V18.0895C21.9815 15.7015 20.0387 13.7588 17.6508 13.7588Z" fill="white"/>
<path d="M15.0011 2.27588C12.1293 2.27588 9.79297 4.61225 9.79297 7.48411C9.79297 9.43206 10.8681 11.1333 12.4559 12.0265C13.209 12.4502 14.0772 12.6923 15.0011 12.6923C15.925 12.6923 16.7933 12.4502 17.5464 12.0265C19.1342 11.1333 20.2093 9.432 20.2093 7.48411C20.2093 4.61231 17.8729 2.27588 15.0011 2.27588Z" fill="white"/>
<path d="M5.85206 7.13013C3.7043 7.13013 1.95703 8.8774 1.95703 11.0252C1.95703 13.1729 3.7043 14.9202 5.85206 14.9202C6.39686 14.9202 6.91565 14.8073 7.38692 14.6045C8.20173 14.2537 8.87357 13.6327 9.28929 12.8549C9.58109 12.3089 9.74709 11.6862 9.74709 11.0252C9.74709 8.87745 7.99982 7.13013 5.85206 7.13013Z" fill="white"/>
<path d="M24.145 7.13013C21.9973 7.13013 20.25 8.8774 20.25 11.0252C20.25 11.6862 20.416 12.309 20.7078 12.8549C21.1235 13.6328 21.7954 14.2537 22.6102 14.6045C23.0814 14.8073 23.6002 14.9202 24.145 14.9202C26.2928 14.9202 28.0401 13.1729 28.0401 11.0252C28.0401 8.8774 26.2928 7.13013 24.145 7.13013Z" fill="white"/>
</svg>
