<svg width="30" height="30" viewBox="0 0 30 30" fill="none" xmlns="http://www.w3.org/2000/svg">
<g clip-path="url(#clip0_5_198)">
<path d="M29.2895 25.6594L22.3923 18.7617C23.5642 16.8961 24.2444 14.691 24.2444 12.3245C24.2444 5.6293 18.8168 0.202515 12.1219 0.202515C5.42704 0.202515 0 5.6293 0 12.3245C0 19.0199 5.42679 24.4461 12.1219 24.4461C14.6973 24.4461 17.0827 23.641 19.0457 22.2728L25.8608 29.0885C26.3343 29.5615 26.9551 29.7972 27.5752 29.7972C28.196 29.7972 28.816 29.5615 29.2903 29.0885C30.2367 28.1411 30.2367 26.6065 29.2895 25.6594ZM12.1219 20.5188C7.59679 20.5188 3.92809 16.8504 3.92809 12.325C3.92809 7.79956 7.59679 4.13086 12.1219 4.13086C16.6473 4.13086 20.3158 7.79956 20.3158 12.325C20.3158 16.8504 16.6473 20.5188 12.1219 20.5188Z" fill="white"/>
</g>
<defs>
<clipPath id="clip0_5_198">
<rect width="30" height="30" fill="white"/>
</clipPath>
</defs>
</svg>
